<?xml version="1.0" encoding="UTF-8"?>
<svg id="Layer_1" data-name="Layer 1" xmlns="http://www.w3.org/2000/svg" viewBox="0 0 21.19 17.85">
  <defs>
    <style>
      .cls-1 {
        fill: #333;
      }
    </style>
  </defs>
  <path class="cls-1" d="M10.59,17.85c-4.7,0-8.52-4-8.52-8.93S5.89,0,10.59,0s8.52,4,8.52,8.93-3.82,8.93-8.52,8.93ZM10.59,1.7c-3.8,0-6.89,3.24-6.89,7.22s3.09,7.22,6.89,7.22,6.89-3.24,6.89-7.22S14.39,1.7,10.59,1.7Z"/>
  <g>
    <path class="cls-1" d="M8.36,11.71l-.27-1.3h-1.35l-.27,1.3h-.84l1.31-5.49h.96l1.31,5.49h-.85ZM7.9,9.44c-.25-1.18-.39-1.85-.42-2-.03-.15-.05-.28-.07-.37-.06.32-.22,1.11-.48,2.37h.96Z"/>
    <path class="cls-1" d="M9.67,6.24h1.15c.52,0,.9.11,1.14.33.24.22.36.57.36,1.05,0,.33-.05.59-.16.8-.1.21-.24.34-.41.38v.04c.23.08.4.22.51.43.1.21.16.49.16.84,0,.5-.12.89-.37,1.17-.24.28-.57.42-.99.42h-1.38v-5.47ZM10.45,8.41h.45c.21,0,.37-.05.46-.15.1-.1.14-.26.14-.48,0-.21-.05-.36-.16-.45-.1-.09-.27-.14-.49-.14h-.41v1.22ZM10.45,9.33v1.42h.51c.22,0,.38-.06.48-.18.1-.12.15-.31.15-.56,0-.45-.22-.68-.66-.68h-.49Z"/>
    <path class="cls-1" d="M15.33,10.19c0,.49-.12.88-.36,1.17-.24.28-.57.43-1,.43-.39,0-.74-.11-1.05-.33v-1.08c.25.16.46.28.63.35.17.07.33.1.47.1.17,0,.3-.05.4-.15.09-.1.14-.24.14-.43,0-.11-.02-.2-.06-.29-.04-.08-.1-.16-.18-.24-.08-.08-.24-.2-.48-.37-.23-.16-.4-.31-.51-.45-.11-.14-.2-.31-.27-.5-.07-.19-.1-.42-.1-.67,0-.48.11-.86.33-1.14.22-.28.53-.41.92-.41.19,0,.38.03.55.1.17.07.36.16.55.28l-.25.9c-.2-.12-.36-.2-.49-.25-.13-.05-.26-.07-.38-.07-.15,0-.26.05-.34.15-.08.1-.12.24-.12.4,0,.1.02.19.05.27.03.07.08.15.15.22.07.07.24.2.5.38.35.24.58.49.71.73.13.25.19.55.19.9Z"/>
  </g>
  <path class="cls-1" d="M17.99,16.33c-.18,0-.36-.06-.51-.19-.35-.3-.4-.83-.12-1.2,4.86-6.25.23-11.76.03-11.99-.3-.35-.28-.89.05-1.2.33-.32.84-.29,1.15.05.06.07,5.8,6.81.03,14.21-.16.21-.39.31-.63.31Z"/>
  <path class="cls-1" d="M3.2,16.33c-.24,0-.47-.11-.63-.31-5.77-7.41-.03-14.15.03-14.21.3-.35.82-.37,1.15-.05.33.32.35.86.05,1.2-.2.23-4.84,5.74.03,11.99.28.36.23.9-.12,1.2-.15.13-.33.19-.51.19Z"/>
</svg>