<?xml version="1.0" encoding="UTF-8"?>
<svg id="Layer_1" data-name="Layer 1" xmlns="http://www.w3.org/2000/svg" viewBox="0 0 22.47 17.89">
  <defs>
    <style>
      .cls-1 {
        fill: #333;
      }
    </style>
  </defs>
  <path class="cls-1" d="M11.23,17.16c-4.53,0-8.21-3.68-8.21-8.21S6.7.73,11.23.73s8.21,3.68,8.21,8.21-3.68,8.21-8.21,8.21ZM11.23,2.27c-3.68,0-6.67,2.99-6.67,6.67s2.99,6.67,6.67,6.67,6.67-2.99,6.67-6.67-2.99-6.67-6.67-6.67Z"/>
  <g>
    <rect class="cls-1" x="10.37" y="3.44" width="1.93" height="7.96" rx=".56" ry=".56"/>
    <rect class="cls-1" x="10.37" y="12.47" width="1.93" height="1.93" rx=".56" ry=".56"/>
  </g>
  <path class="cls-1" d="M4.49,17.89c-.16,0-.32-.05-.46-.15-.16-.12-4.03-3.08-4.03-8.79S3.87.28,4.03.15c.34-.26.82-.19,1.08.16.25.34.19.82-.15,1.08-.14.11-3.41,2.65-3.41,7.56s3.27,7.45,3.41,7.56c.34.26.41.74.15,1.08-.15.2-.38.31-.62.31Z"/>
  <path class="cls-1" d="M17.98,17.89c-.23,0-.47-.11-.62-.31-.25-.34-.19-.82.15-1.08.14-.11,3.41-2.65,3.41-7.56s-3.27-7.45-3.41-7.56c-.34-.26-.41-.74-.15-1.08.26-.34.74-.41,1.08-.15.16.12,4.03,3.08,4.03,8.79s-3.87,8.67-4.03,8.79c-.14.1-.3.15-.46.15Z"/>
</svg>