<?xml version="1.0" encoding="UTF-8"?>
<svg id="Layer_1" data-name="Layer 1" xmlns="http://www.w3.org/2000/svg" viewBox="0 0 21.05 19.35">
  <defs>
    <style>
      .cls-1 {
        fill: #333;
      }
    </style>
  </defs>
  <path class="cls-1" d="M13.06,3.68V0h-5.08v3.68c-1.89.94-3.2,2.89-3.2,5.14,0,3.16,2.57,5.74,5.74,5.74s5.74-2.57,5.74-5.74c0-2.25-1.31-4.21-3.2-5.14ZM9.05,1.06h2.96v1.9h-2.96v-1.9ZM10.53,13.51c-2.58,0-4.68-2.1-4.68-4.68s2.1-4.68,4.68-4.68,4.68,2.1,4.68,4.68-2.1,4.68-4.68,4.68Z"/>
  <path class="cls-1" d="M20.52,8.3h-3.58v1.06h3.58c.29,0,.53-.24.53-.53s-.24-.53-.53-.53Z"/>
  <path class="cls-1" d="M4.1,9.36v-1.06H.53c-.29,0-.53.24-.53.53s.24.53.53.53h3.58Z"/>
  <path class="cls-1" d="M15.82,4.29l2.15-2.15c.21-.21.21-.54,0-.75-.21-.21-.54-.21-.75,0l-2.15,2.15-.37.37.75.75.37-.37Z"/>
  <path class="cls-1" d="M15.82,13.37l-.37-.37-.75.75.37.37,2.15,2.15c.21.21.54.21.75,0,.21-.21.21-.54,0-.75l-2.15-2.15Z"/>
  <path class="cls-1" d="M10,15.78v3.05c0,.29.24.53.53.53s.53-.24.53-.53v-3.58h-1.06v.53Z"/>
  <path class="cls-1" d="M5.24,13.37l-2.15,2.15c-.21.21-.21.54,0,.75.21.21.54.21.75,0l2.15-2.15.37-.37-.75-.75-.37.37Z"/>
  <path class="cls-1" d="M5.24,4.29l.37.37.75-.75-.37-.37L3.83,1.38c-.21-.21-.54-.21-.75,0-.21.21-.21.54,0,.75l2.15,2.15Z"/>
  <path class="cls-1" d="M10.53,10.03c.39,0,.71-.32.71-.71v-3.38c0-.39-.32-.71-.71-.71s-.71.32-.71.71v3.38c0,.39.32.71.71.71Z"/>
  <path class="cls-1" d="M10.53,10.48c-.44,0-.79.36-.79.79s.36.79.79.79.79-.36.79-.79-.36-.79-.79-.79Z"/>
</svg>