<?xml version="1.0" encoding="UTF-8"?>
<svg id="Layer_1" data-name="Layer 1" xmlns="http://www.w3.org/2000/svg" viewBox="0 0 20.28 13.91">
  <defs>
    <style>
      .cls-1 {
        fill: #333;
      }
    </style>
  </defs>
  <path class="cls-1" d="M19.63,4.51s-.2-.45-.45-.45h-2.33c-.25,0-.45.2-.45.45v.44h-.63v-.73c0-.16-.17-.14-.17-.14h-1.41c0-2.21-1.12-2.21-1.12-2.21h-2.5v-.75h2.5V0H4.78v1.11h2.73v.75h-2.51l-1.51,1.15h-1.17c-.25,0-.45.2-.45.45v2.9h-.75v-3.09H0v7.77h1.11v-3.2h.75v3c0,.25.2.45.45.45h1.17l3.67,2.62h7.68c1.04,0,.93-.89.93-.89v-1.35h.63v1c0,.25.2.45.45.45h2.33c.25,0,.45-.45.45-.45l.65-1.89v-4.39l-.65-1.89ZM5.11,8.89c.29,0,.58-.06.77-.14l.1.36c-.17.08-.52.16-.96.16-1.02,0-1.79-.62-1.79-1.75s.77-1.81,1.9-1.81c.45,0,.74.09.86.15l-.11.36c-.18-.08-.43-.14-.73-.14-.85,0-1.42.52-1.42,1.42,0,.84.51,1.39,1.4,1.39ZM9.26,9.21h-.47v-1.62h-1.76v1.62h-.47v-3.45h.47v1.45h1.76v-1.45h.47v3.45ZM12.12,9.21h-2.05v-3.45h1.97v.37h-1.49v1.09h1.41v.37h-1.41v1.25h1.57v.37ZM14.4,8.89c.29,0,.58-.06.76-.14l.1.36c-.17.08-.52.16-.96.16-1.02,0-1.79-.62-1.79-1.75s.77-1.81,1.9-1.81c.45,0,.74.09.86.15l-.11.36c-.18-.08-.43-.14-.73-.14-.85,0-1.42.52-1.42,1.42,0,.84.51,1.39,1.4,1.39ZM17.86,9.21l-1.2-1.69-.34.38v1.31h-.47v-3.45h.47v1.66h.02c.1-.13.19-.26.29-.37l1.11-1.29h.58l-1.31,1.46,1.42,1.99h-.55Z"/>
</svg>