<?xml version="1.0" encoding="UTF-8"?>
<svg id="Layer_1" data-name="Layer 1" xmlns="http://www.w3.org/2000/svg" viewBox="0 0 22.3 17.7">
  <defs>
    <style>
      .cls-1 {
        fill: #333;
      }
    </style>
  </defs>
  <path class="cls-1" d="M11.18.72C6.7.72,3.06,4.37,3.06,8.85s3.65,8.13,8.13,8.13,8.13-3.65,8.13-8.13S15.66.72,11.18.72ZM11.18,15.45c-3.64,0-6.6-2.96-6.6-6.6s2.96-6.6,6.6-6.6,6.6,2.96,6.6,6.6-2.96,6.6-6.6,6.6Z"/>
  <path class="cls-1" d="M4.97,16.33c-.14-.1-3.38-2.61-3.38-7.48S4.83,1.48,4.97,1.37c.34-.25.4-.73.15-1.07-.25-.34-.73-.41-1.07-.15C3.89.27.07,3.2.07,8.85s3.82,8.58,3.99,8.7c.14.1.3.15.45.15.23,0,.46-.11.61-.3.25-.34.19-.81-.15-1.07Z"/>
  <path class="cls-1" d="M18.31.15c-.34-.25-.81-.18-1.07.15-.25.34-.19.81.15,1.07.14.1,3.38,2.61,3.38,7.48s-3.24,7.37-3.38,7.48c-.34.25-.4.73-.15,1.07.15.2.38.31.61.31.16,0,.32-.05.46-.15.16-.12,3.99-3.05,3.99-8.7S18.47.27,18.31.15Z"/>
  <polygon class="cls-1" points="7.4 8.93 9.13 8.93 9.13 8.43 7.4 8.43 7.4 6.94 9.23 6.94 9.23 6.44 6.81 6.44 6.81 11.12 9.33 11.12 9.33 10.62 7.4 10.62 7.4 8.93"/>
  <path class="cls-1" d="M11.41,8.47c-.62-.25-.89-.46-.89-.9,0-.32.23-.7.84-.7.4,0,.7.14.85.22l.16-.49c-.2-.11-.54-.22-.99-.22-.87,0-1.44.54-1.44,1.26,0,.65.45,1.06,1.17,1.33.61.24.85.49.85.93,0,.47-.34.8-.93.8-.4,0-.77-.14-1.03-.31l-.15.51c.24.17.71.31,1.15.31,1.05,0,1.56-.63,1.56-1.35s-.38-1.06-1.14-1.37Z"/>
  <path class="cls-1" d="M15.7,6.8c-.27-.25-.68-.39-1.25-.39-.46,0-.83.04-1.11.09v4.62h.58v-1.85c.12.02.29.03.48.03.55,0,1.05-.17,1.35-.51.23-.24.34-.58.34-1.01s-.15-.76-.39-.99ZM14.39,8.82c-.19,0-.38-.01-.48-.04v-1.85c.1-.02.28-.04.54-.04.64,0,1.05.3,1.05.93s-.42,1-1.12,1Z"/>
</svg>