<?xml version="1.0" encoding="UTF-8"?>
<svg id="Layer_1" data-name="Layer 1" xmlns="http://www.w3.org/2000/svg" viewBox="0 0 16.24 18.06">
  <defs>
    <style>
      .cls-1 {
        fill: #333;
      }
    </style>
  </defs>
  <path class="cls-1" d="M15.18,3.03C13.61.96,10.19-.53,11.04.27c2.16,2.04,3.48,3.98,3.57,4.42.1.48-.42,1.28.16,1.53.01,0,.03,0,.04.02,0,1.3,0,5.42,0,8.28,0,.13-.11,1.43-1.16,1.43s-1.15-1.31-1.16-1.43v-4.66c0-.93-.26-1.65-.78-2.14-.35-.32-.74-.48-1.06-.55V1.01c0-.56-.45-1.01-1.01-1.01H1.56C1,0,.55.45.55,1.01v16.03h-.55v1.02h11.19v-1.02h-.55v-8.98c.16.06.32.14.47.28.34.32.51.83.51,1.51v4.69c.04.78.5,2.26,2.01,2.26s1.98-1.48,2.01-2.26v-.02s0-2.17.01-4.35c0-1.09,0-2.18,0-3,0-.48,0-.81,0-1.04.14-.09.24-.21.31-.3.19-.26.77-.73-.8-2.8ZM9.62,7.43H1.57V1.55h.75s6.56,0,6.56,0h0s.75,0,.75,0v5.88Z"/>
</svg>