<?xml version="1.0" encoding="UTF-8"?>
<svg id="Layer_1" xmlns="http://www.w3.org/2000/svg" version="1.1" viewBox="0 0 23.77 12.22">
  <!-- Generator: Adobe Illustrator 29.1.0, SVG Export Plug-In . SVG Version: 2.1.0 Build 142)  -->
  <defs>
    <style>
      .st0 {
        fill: #333;
      }
    </style>
  </defs>
  <path class="st0" d="M15.71,12.22c-.73,0-1.45-.07-2.16-.22-.16-.03-.31-.13-.4-.27-1.01-1.55-1.56-3.55-1.56-5.61s.55-4.06,1.56-5.61c.09-.14.24-.24.4-.27.7-.15,1.43-.22,2.16-.22,4.44,0,8.06,2.74,8.06,6.11s-3.62,6.11-8.06,6.11ZM14.06,10.82c.54.1,1.09.14,1.64.14,3.75,0,6.81-2.18,6.81-4.85s-3.05-4.85-6.81-4.85c-.55,0-1.1.05-1.64.14-.79,1.32-1.22,2.98-1.22,4.71s.43,3.39,1.22,4.71Z"/>
  <path class="st0" d="M10.27,2.54H.63c-.35,0-.63-.28-.63-.63s.28-.63.63-.63h9.64c.35,0,.63.28.63.63s-.28.63-.63.63Z"/>
  <path class="st0" d="M10.27,5.28H.63c-.35,0-.63-.28-.63-.63s.28-.63.63-.63h9.64c.35,0,.63.28.63.63s-.28.63-.63.63Z"/>
  <path class="st0" d="M10.27,8.02H.63c-.35,0-.63-.28-.63-.63s.28-.63.63-.63h9.64c.35,0,.63.28.63.63s-.28.63-.63.63Z"/>
  <path class="st0" d="M10.27,10.77H.63c-.35,0-.63-.28-.63-.63s.28-.63.63-.63h9.64c.35,0,.63.28.63.63s-.28.63-.63.63Z"/>
</svg>