<?xml version="1.0" encoding="UTF-8"?>
<svg id="Layer_1" data-name="Layer 1" xmlns="http://www.w3.org/2000/svg" viewBox="0 0 33 13.03">
  <defs>
    <style>
      .cls-1 {
        fill: #333;
      }
    </style>
  </defs>
  <g>
    <path class="cls-1" d="M31.75,4.68c.23-.31.22-.74-.02-1.05l-1.73-2.18c-.23-.3-.63-.41-.98-.27l-11.27,4.3-1.89-1.37c-.15-.11-.33-.17-.51-.17h-2.46v-.81h.58c.48,0,.86-.39.86-.86V.86c0-.48-.39-.86-.86-.86h-3.37c-.48,0-.86.39-.86.86v1.41c0,.48.39.86.86.86h.65v.81h-3.53v-.28c0-.35-.21-.66-.53-.8l-3.99-1.68c-.22-.09-.46-.09-.68,0-.22.09-.38.27-.47.49L.06,5.7c-.15.41.02.87.41,1.07l5.03,2.63v2.78c0,.48.39.86.86.86h13.15c.22,0,.42-.08.58-.23l9.19-8.39,1.47.56c.36.14.77.02,1-.3ZM1.94,5.59l.92-2.46,2.63,1.11v3.2l-3.55-1.85ZM19.17,11.31H7.22v-5.63h7.85l2.04,1.48c.24.17.54.21.82.11l9.74-3.72-8.49,7.76Z"/>
    <path class="cls-1" d="M31.46,6.52s-1.54,2.7-1.54,3.46.69,1.38,1.54,1.38,1.54-.62,1.54-1.38-1.54-3.46-1.54-3.46Z"/>
  </g>
  <g>
    <polygon class="cls-1" points="19.52 12.16 6.58 12.16 6.58 5.01 15.39 5.01 17.78 6.26 25 7.2 19.52 12.16"/>
    <path class="cls-1" d="M19.58,12.31H6.43v-7.46h9l2.39,1.25,7.52.98-5.77,5.23ZM6.73,12.01h12.73l5.2-4.71-6.93-.9-2.37-1.24H6.73v6.85Z"/>
  </g>
</svg>