<?xml version="1.0" encoding="UTF-8"?>
<svg id="Layer_1" data-name="Layer 1" xmlns="http://www.w3.org/2000/svg" viewBox="0 0 21.01 16.73">
  <defs>
    <style>
      .cls-1 {
        fill: #333;
      }
    </style>
  </defs>
  <path class="cls-1" d="M10.66,4.19c-.86,0-1.57.08-2.09.17v8.69h1.1v-3.48c.22.04.55.07.9.07,1.03,0,1.97-.33,2.54-.97.42-.46.65-1.08.65-1.89s-.29-1.43-.74-1.85c-.5-.47-1.28-.73-2.36-.73ZM10.56,8.71c-.36,0-.72-.03-.9-.08v-3.47c.19-.04.54-.08,1.02-.08,1.2,0,1.98.56,1.98,1.75s-.8,1.88-2.11,1.88Z"/>
  <path class="cls-1" d="M10.51.68c-4.24,0-7.68,3.45-7.68,7.68s3.45,7.68,7.68,7.68,7.68-3.45,7.68-7.68S14.74.68,10.51.68ZM10.51,14.61c-3.44,0-6.24-2.8-6.24-6.24s2.8-6.24,6.24-6.24,6.24,2.8,6.24,6.24-2.8,6.24-6.24,6.24Z"/>
  <path class="cls-1" d="M4.64,15.44c-.13-.1-3.19-2.47-3.19-7.07S4.51,1.4,4.64,1.3c.32-.24.38-.69.14-1.01-.24-.32-.69-.38-1.01-.15-.15.12-3.77,2.88-3.77,8.22s3.62,8.11,3.77,8.22c.13.1.28.14.43.14.22,0,.44-.1.58-.29.24-.32.18-.77-.14-1.01Z"/>
  <path class="cls-1" d="M17.24.14c-.32-.24-.77-.17-1.01.14-.24.32-.18.77.14,1.01.13.1,3.19,2.47,3.19,7.07s-3.06,6.97-3.19,7.07c-.32.24-.38.69-.14,1.01.14.19.36.29.58.29.15,0,.3-.05.43-.14.15-.12,3.77-2.88,3.77-8.22S17.4.26,17.24.14Z"/>
</svg>