<?xml version="1.0" encoding="UTF-8"?>
<svg id="Layer_1" xmlns="http://www.w3.org/2000/svg" version="1.1" viewBox="0 0 14.93 21.51">
  <!-- Generator: Adobe Illustrator 29.1.0, SVG Export Plug-In . SVG Version: 2.1.0 Build 142)  -->
  <defs>
    <style>
      .st0 {
        fill: #333;
      }
    </style>
  </defs>
  <path class="st0" d="M7.67,6.08c-1.78,0-3.24-1.36-3.24-3.04S5.89,0,7.67,0s3.24,1.36,3.24,3.04-1.45,3.04-3.24,3.04ZM7.67,1.25c-1.09,0-1.98.8-1.98,1.79s.89,1.79,1.98,1.79,1.98-.8,1.98-1.79-.89-1.79-1.98-1.79Z"/>
  <path class="st0" d="M10.49,15.31h-1.25v-5.95c0-.68-.62-1.24-1.39-1.24h-.34c-.77,0-1.39.56-1.39,1.24v5.95h-1.25v-5.95c0-1.37,1.19-2.49,2.64-2.49h.34c1.46,0,2.64,1.12,2.64,2.49v5.95Z"/>
  <path class="st0" d="M1.06,12.96c-.18,0-.36-.08-.48-.22-.22-.26-.19-.66.07-.88l4.86-4.12c.26-.22.66-.19.88.07.22.26.19.66-.07.88L1.46,12.81c-.12.1-.26.15-.4.15Z"/>
  <path class="st0" d="M14.31,12.96c-.14,0-.29-.05-.41-.15l-4.85-4.12c-.26-.22-.3-.62-.07-.88.22-.26.62-.3.88-.07l4.86,4.12c.26.22.3.62.07.88-.12.15-.3.22-.48.22Z"/>
  <path class="st0" d="M13.59,17.8c-.16,0-.32-.06-.44-.18-3.3-3.26-7.28-3.28-12.17-.07-.27.18-.64.12-.84-.14-.2-.26-.17-.62.07-.85L11.42,6.19c.25-.24.65-.22.89.03.24.25.22.65-.04.89l-7.97,7.37c3.7-1.24,6.96-.49,9.73,2.24.25.24.25.64,0,.89-.12.12-.28.19-.45.19Z"/>
  <path class="st0" d="M6.56,21.51c-.25,0-.49-.15-.59-.4l-1.94-5.06c-.12-.32.04-.69.36-.81.32-.12.69.04.81.36l1.94,5.06c.12.32-.04.69-.36.81-.07.03-.15.04-.22.04Z"/>
  <path class="st0" d="M8.78,21.51c-.07,0-.14-.01-.21-.04-.33-.12-.49-.48-.38-.8l1.82-5.06c.12-.33.48-.49.8-.38.33.12.5.48.38.8l-1.82,5.06c-.09.26-.33.42-.59.42Z"/>
</svg>