<?xml version="1.0" encoding="UTF-8"?>
<svg id="Layer_1" data-name="Layer 1" xmlns="http://www.w3.org/2000/svg" viewBox="0 0 17.24 16.74">
  <defs>
    <style>
      .cls-1 {
        fill: #333;
      }
    </style>
  </defs>
  <path class="cls-1" d="M9.4,4.7C9.4,2.1,7.29,0,4.7,0S0,2.1,0,4.7s2.1,4.7,4.7,4.7,4.7-2.1,4.7-4.7Z"/>
  <path class="cls-1" d="M15.51,3.04c0-1.34-1.08-2.42-2.42-2.42s-2.42,1.08-2.42,2.42,1.08,2.42,2.42,2.42,2.42-1.08,2.42-2.42Z"/>
  <path class="cls-1" d="M13.69,13.59c-.57-.78-1.15-1.56-1.72-2.34-.58-.79-1.16-1.58-1.74-2.37-.07-.1-.16-.19-.25-.26-.37-.29-.84-.33-1.19-.09-.35.25-.71.48-1.08.71-.22.14-.36.37-.41.63-.04.26,0,.56.16.83.38.65.76,1.3,1.14,1.96.6,1.03,1.2,2.06,1.81,3.1.31.54,1.04.73,1.61.37.46-.28.92-.58,1.37-.9.55-.38.67-1.13.3-1.63Z"/>
  <path class="cls-1" d="M10.39,8.69l1.73,2.36c1.25-1.83,2.08-5.27.65-5.49-1.07-.16-2.13,1.61-2.71,2.8.12.09.24.2.33.33Z"/>
  <path class="cls-1" d="M7.03,9.83c-.44.02-.96.07-1.38.15-.92.19-3.98,4.88-3.98,4.88-.34.41-.28,1.02.13,1.36l.35.29c.41.34,1.02.28,1.36-.13l.1-.13v-.02s1.94-2.33,1.94-2.33c0,0,.01-.02.02-.03l1.12-1.35s.72.13,1.64.13l-1.1-1.89c-.18-.3-.24-.64-.2-.94Z"/>
  <path class="cls-1" d="M16.84,6.8l-2.24,1.22c-.29.16-.64.11-.87-.1.11-.61.13-1.18,0-1.59l2.2-1.2c.37-.2.84-.07,1.04.31l.17.31c.2.37.07.84-.31,1.04Z"/>
</svg>