<?xml version="1.0" encoding="UTF-8"?>
<svg id="Layer_1" data-name="Layer 1" xmlns="http://www.w3.org/2000/svg" viewBox="0 0 19.66 18.83">
  <defs>
    <style>
      .cls-1 {
        fill: #333;
      }
    </style>
  </defs>
  <path class="cls-1" d="M9.8,16.3c1.36,0,2.46-1.1,2.46-2.46,0-1.06-.68-1.96-1.62-2.31v-1.07h2.26c.44,0,.81-.36.81-.81s-.36-.81-.81-.81h-2.26v-1.34h2.26c.44,0,.81-.36.81-.81s-.36-.81-.81-.81h-2.26v-1.34h2.26c.44,0,.81-.36.81-.81s-.36-.81-.81-.81h-2.26V.84c0-.46-.38-.84-.84-.84s-.84.38-.84.84v10.7c-.94.34-1.62,1.25-1.62,2.31,0,1.36,1.1,2.46,2.46,2.46Z"/>
  <path class="cls-1" d="M19.08,13.7c-.21,0-.3-.07-.52-.28-.25-.24-.63-.61-1.33-.61s-1.08.37-1.33.61c-.22.21-.3.28-.52.28s-.3-.07-.52-.28c-.25-.24-.63-.61-1.33-.61-.32,0-.59.26-.59.59s.26.59.59.59c.21,0,.3.07.52.28.25.24.63.61,1.33.61s1.08-.37,1.33-.61c.22-.21.3-.28.52-.28s.3.07.52.28c.25.24.63.61,1.33.61.32,0,.59-.26.59-.59s-.26-.59-.59-.59Z"/>
  <path class="cls-1" d="M3.76,14.27c.22-.21.3-.28.52-.28s.3.07.52.28c.25.24.63.61,1.33.61.32,0,.59-.26.59-.59s-.26-.59-.59-.59c-.21,0-.3-.07-.52-.28-.25-.24-.63-.61-1.33-.61s-1.08.37-1.33.61c-.22.21-.3.28-.52.28s-.3-.07-.52-.28c-.25-.24-.63-.61-1.33-.61-.32,0-.59.26-.59.59s.26.59.59.59c.21,0,.3.07.52.28.25.24.63.61,1.33.61s1.08-.37,1.33-.61Z"/>
  <path class="cls-1" d="M16.74,16.82c-.67,0-1.03.35-1.27.58-.2.19-.27.25-.46.25s-.26-.06-.46-.25c-.24-.23-.6-.58-1.27-.58s-1.03.35-1.27.58c-.2.19-.27.25-.46.25s-.26-.06-.46-.25c-.24-.23-.6-.58-1.27-.58s-1.03.35-1.27.58c-.2.19-.27.25-.46.25s-.26-.06-.46-.25c-.24-.23-.6-.58-1.27-.58s-1.03.35-1.27.58c-.2.19-.27.25-.46.25s-.26-.06-.46-.25c-.24-.23-.6-.58-1.27-.58-.32,0-.59.26-.59.59s.26.59.59.59c.19,0,.26.06.46.25.24.23.6.58,1.27.58s1.03-.35,1.27-.58c.2-.19.27-.25.46-.25s.26.06.46.25c.24.23.6.58,1.27.58s1.03-.35,1.27-.58c.2-.19.27-.25.46-.25s.26.06.46.25c.24.23.6.58,1.27.58s1.03-.35,1.27-.58c.2-.19.27-.25.46-.25s.26.06.46.25c.24.23.6.58,1.27.58s1.03-.35,1.27-.58c.2-.19.27-.25.46-.25.32,0,.59-.26.59-.59s-.26-.59-.59-.59Z"/>
</svg>