<?xml version="1.0" encoding="UTF-8"?>
<svg id="Layer_1" data-name="Layer 1" xmlns="http://www.w3.org/2000/svg" viewBox="0 0 20.65 28.37">
  <defs>
    <style>
      .cls-1 {
        fill: #333;
      }
    </style>
  </defs>
  <path class="cls-1" d="M19.96,4.61h-1.26v-.03s-.13-.28-.13-.28c-.42-.86-1.87-3.71-3.02-4.24l-.14-.06h-7.79l-.14.06c-1.15.53-2.61,3.38-3.02,4.24l-.14.28v.03s-1.25,0-1.25,0c-.38,0-.69.27-.69.6v.64c0,.33.31.6.69.6h.4c-.04.2-.07.41-.07.63v2.86c0,.86.34,1.61.86,2.08v2.36c0,.38.31.69.69.69h1.55c.38,0,.69-.31.69-.69v-1.87h8.63v1.87c0,.38.31.69.69.69h1.55c.38,0,.69-.31.69-.69v-2.36c.52-.47.86-1.22.86-2.08v-2.86c0-.22-.03-.43-.07-.63h.4c.38,0,.69-.27.69-.6v-.64c0-.33-.31-.6-.69-.6ZM7.96,1.38h7.12c.47.36,1.36,1.77,2.05,3.12H5.91c.69-1.35,1.58-2.76,2.05-3.12Z"/>
  <g>
    <path class="cls-1" d="M6.44,17.37s.32.06.86.22c.27.09.6.2.97.39.37.2.79.43,1.19.93.2.24.37.62.39,1.04,0,.2-.04.42-.09.62l-.12.27-.06.14-.03.07-.07.09-.06.08s-.04.06-.09.11c-.08.09-.19.19-.26.25-.15.13-.31.23-.47.32-.31.17-.63.28-.94.38-1.23.38-2.47.5-3.62.73-.57.12-1.12.23-1.52.41-.2.09-.34.19-.38.24-.04.06-.02.01-.02.08h0c0,.09,0-.12,0-.09h0s0,.02,0,.02v.05s.02.11.02.11l.02.21c0,.09.02.09.03.12.01.03.02.05.03.08,0,.04.06.16.09.24.03.09.08.17.13.26.19.35.45.69.72,1,.54.62,1.08,1.13,1.47,1.49.39.36.61.57.61.57h0c.13.13.14.34.01.48-.08.08-.18.11-.28.1,0,0-.34-.04-.88-.21-.27-.09-.6-.21-.96-.38-.36-.18-.77-.39-1.18-.71-.41-.31-.85-.69-1.22-1.24-.1-.13-.19-.27-.27-.43-.08-.17-.17-.29-.23-.52-.04-.1-.07-.21-.1-.32-.03-.1-.06-.23-.06-.29l-.03-.21v-.11s-.02-.05-.02-.05h0s0-.02,0-.02v-.11s0-.05,0-.05c-.02-.51.23-1.14.6-1.51.37-.38.76-.58,1.11-.73.72-.28,1.37-.4,2.01-.49,1.27-.17,2.49-.22,3.49-.41.49-.11.9-.24,1.05-.42.15-.17.2-.27.09-.54-.12-.26-.4-.53-.66-.74-.26-.22-.53-.38-.74-.51-.44-.27-.71-.4-.71-.4-.16-.07-.23-.27-.16-.43.06-.13.21-.2.35-.18h0Z"/>
    <path class="cls-1" d="M17.25,17.37s.32.06.86.22c.27.09.6.2.96.39.37.2.79.43,1.19.93.2.24.37.62.39,1.04,0,.2-.04.42-.09.62l-.12.27-.06.14-.03.07-.07.09-.06.08s-.04.06-.09.11c-.08.09-.19.19-.26.25-.15.13-.31.23-.47.32-.32.17-.63.28-.94.38-1.23.38-2.46.5-3.62.73-.57.12-1.12.23-1.53.41-.2.09-.34.19-.38.24-.04.06-.02.01-.02.08h0c0,.09,0-.12,0-.09h0s0,.02,0,.02v.05s.02.11.02.11l.02.21c0,.09.02.09.03.12.01.03.02.05.03.08,0,.04.06.16.09.24.03.09.08.17.13.26.19.35.44.69.72,1,.54.62,1.08,1.13,1.47,1.49.39.36.61.57.61.57h0c.13.13.14.34.01.48-.08.08-.18.11-.28.1,0,0-.34-.04-.88-.21-.27-.09-.6-.21-.96-.38-.36-.18-.77-.39-1.18-.71-.41-.31-.85-.69-1.22-1.24-.1-.13-.19-.27-.27-.43-.08-.17-.17-.29-.23-.52-.04-.1-.07-.21-.1-.32-.03-.1-.06-.23-.06-.29l-.03-.21v-.11s-.02-.05-.02-.05h0s0-.02,0-.02v-.11s0-.05,0-.05c-.02-.51.23-1.14.6-1.51.36-.38.76-.58,1.11-.73.72-.28,1.37-.4,2.01-.49,1.27-.17,2.49-.22,3.49-.41.5-.11.9-.24,1.05-.42.15-.17.2-.27.09-.54-.12-.26-.4-.53-.66-.74-.26-.22-.53-.38-.74-.51-.44-.27-.71-.4-.71-.4-.16-.07-.23-.27-.16-.43.06-.13.21-.2.35-.18h0Z"/>
  </g>
</svg>